# xmcd
#
# Track frame offsets:
#	150
#	41933
#	72186
#	101673
#	148035
#	195935
#
# Disc length: 3379 seconds
#
# Revision: 0
# Processed by: cddbd v1.5.2PL0 Copyright (c) Steve Scherf et al.
# Submitted via: audiograbber 1.83.01
#
DISCID=530d3106
DTITLE=Grateful Dead - 94-07-13 Franklin County Field, Highgate VT
DYEAR=1900
DGENRE=
TTITLE0=Truckin'
TTITLE1=New Speedway Boogie
TTITLE2=Way To Go Home
TTITLE3=Corrina
TTITLE4=Uncle John's Band
TTITLE5=Drums
EXTD=
EXTT0=
EXTT1=
EXTT2=
EXTT3=
EXTT4=
EXTT5=
PLAYORDER=
